<svg xmlns="http://www.w3.org/2000/svg" xmlns:xlink="http://www.w3.org/1999/xlink" version="1.1" id="Layer_1" x="0px" y="0px" width="100px" height="100px" viewBox="0 0 100 100" enable-background="new 0 0 100 100" xml:space="preserve">
<path d="M77.784,48.795c-0.059,0-0.117,0.001-0.174,0.001c-3.23-7.702-10.82-12.803-19.222-12.803c-0.666,0-1.325,0.044-1.979,0.106  c-1.438-0.566-2.939-0.87-4.481-0.871c-2.782-6.472-9.196-10.748-16.293-10.748s-13.512,4.275-16.294,10.748  c-6.82,0.006-12.366,5.556-12.366,12.377c0,6.824,5.553,12.375,12.377,12.375c2.131,0,4.207-0.562,6.044-1.597  c-0.547,1.524-0.862,3.16-0.862,4.872c0,7.973,6.487,14.459,14.46,14.459c3.155,0,6.211-1.038,8.719-2.938  c3.224,1.925,6.893,2.938,10.677,2.938c3.783,0,7.452-1.014,10.676-2.938c2.509,1.9,5.564,2.938,8.72,2.938  c7.973,0,14.459-6.486,14.459-14.459C92.243,55.282,85.757,48.795,77.784,48.795z M27.395,54.546l-0.94-0.632l-0.849,0.752  c-1.733,1.536-3.954,2.384-6.254,2.384c-5.208,0-9.445-4.236-9.445-9.444c0-5.209,4.237-9.445,9.445-9.445  c0.283,0,0.562,0.019,0.841,0.043l1.125,0.098l0.381-1.062c2.107-5.878,7.708-9.826,13.937-9.826s11.829,3.949,13.936,9.826  l0.228,0.631c-4.708,2.145-8.564,5.998-10.633,10.927c-0.057-0.001-0.114-0.001-0.172-0.001c-4.717,0-8.902,2.281-11.543,5.787  C27.432,54.57,27.413,54.56,27.395,54.546z M77.784,74.783c-2.81,0-5.521-1.034-7.637-2.908l-0.847-0.752l-0.941,0.63  c-2.956,1.983-6.403,3.03-9.971,3.03c-3.568,0-7.016-1.047-9.972-3.03l-0.941-0.63l-0.847,0.752  c-2.115,1.874-4.826,2.908-7.636,2.908c-6.357,0-11.528-5.171-11.528-11.527c0-1.688,0.373-3.286,1.026-4.731l0,0l0.724-1.16  c2.126-3.41,5.781-5.444,9.778-5.444c0.348,0,0.689,0.023,1.029,0.052l1.123,0.096l0.38-1.062c2.34-6.526,8.299-11.158,15.18-11.801  l2.612-0.244c7.157,0.375,13.488,5.035,15.933,11.852l0.38,1.062l1.123-0.097c0.341-0.029,0.683-0.052,1.031-0.052  c6.356,0,11.527,5.172,11.527,11.53C89.312,69.612,84.141,74.783,77.784,74.783z"/>
</svg>