<svg xmlns="http://www.w3.org/2000/svg" xmlns:xlink="http://www.w3.org/1999/xlink" version="1.1" id="Layer_1" x="0px" y="0px" viewBox="0 0 48 48" enable-background="new 0 0 48 48" xml:space="preserve" height="100px" width="100px">
<g>
	<path fill="#000000" d="M38,48.1H14.2c-5.5,0-10-4.4-10-9.7s4.5-9.7,10-9.7h3.5c1.3-4.4,5.5-7.5,10.4-7.5c4.8,0,9.1,3.1,10.4,7.5   c5.3,0.2,9.5,4.5,9.5,9.7C48,43.7,43.5,48.1,38,48.1z M14.2,30.7c-4.4,0-8,3.5-8,7.7c0,4.2,3.6,7.7,8,7.7H38c4.4,0,8-3.5,8-7.7   c0-4.2-3.6-7.7-8-7.7h-1.1l-0.2-0.8c-0.8-3.9-4.4-6.7-8.6-6.7c-4.2,0-7.8,2.8-8.6,6.7l-0.2,0.8H14.2z"/>
	<path fill="#000000" d="M13.7,29.9c-2-2.2-3.2-5-3.2-7.9c0-6.4,5-11.4,11.4-11.4c6.3,0,11.3,5,11.3,11.4c0,0.4,0,0.8-0.1,1.3   l-1.9-0.5c0.1-0.3,0.1-0.5,0.1-0.9c0-5.3-4.1-9.4-9.3-9.4c-5.3,0-9.4,4.1-9.4,9.4c0,2.4,0.9,4.7,2.6,6.5L13.7,29.9z"/>
	<rect x="20.9" y="1" fill="#000000" width="2" height="7.5"/>
	<g>
		<rect x="35.3" y="21" fill="#000000" width="7.4" height="2"/>
		<rect x="1" y="21" fill="#000000" width="7.4" height="2"/>
	</g>
	<rect x="33" y="6" transform="matrix(0.7139 0.7002 -0.7002 0.7139 16.5544 -21.0187)" fill="#000000" width="2" height="7.4"/>
	<rect x="6" y="8.8" transform="matrix(0.7071 0.7071 -0.7071 0.7071 9.75 -4.0386)" fill="#000000" width="7.5" height="2"/>
</g>
</svg>