<svg xmlns="http://www.w3.org/2000/svg" xmlns:xlink="http://www.w3.org/1999/xlink" version="1.1" id="Layer_1" x="0px" y="0px" viewBox="0 0 100 100" enable-background="new 0 0 100 100" xml:space="preserve" height="100px" width="100px">
<g>
	<path d="M69.8,57.4H31.1c-6.8,0-12.4-5.6-12.4-12.4c0-6.8,5.6-12.4,12.4-12.4c0.4,0,0.8,0,1.2,0.1c2.8-6.1,9-10.1,15.8-10.1   c8.6,0,15.7,6.1,17.2,14.3c1.4-0.7,2.9-1,4.5-1c5.9,0,10.8,4.8,10.8,10.8S75.8,57.4,69.8,57.4z M31.1,35.6c-5.2,0-9.4,4.2-9.4,9.4   s4.2,9.4,9.4,9.4h38.7c4.3,0,7.8-3.5,7.8-7.8s-3.5-7.8-7.8-7.8c-1.8,0-3.4,0.6-4.8,1.7c-0.4,0.4-1,0.4-1.6,0.2   c-0.5-0.2-0.8-0.7-0.9-1.3c-0.3-7.8-6.6-13.9-14.4-13.9c-6,0-11.4,3.7-13.5,9.3c-0.3,0.7-1,1.1-1.7,0.9   C32.4,35.6,31.7,35.6,31.1,35.6z"/>
</g>
<line fill="none" stroke="#000000" stroke-width="3" stroke-linecap="round" stroke-linejoin="round" stroke-miterlimit="10" x1="28.1" y1="62.1" x2="21.4" y2="71.7"/>
<line fill="none" stroke="#000000" stroke-width="3" stroke-linecap="round" stroke-linejoin="round" stroke-miterlimit="10" x1="39.1" y1="62.1" x2="35.8" y2="66.9"/>
<line fill="none" stroke="#000000" stroke-width="3" stroke-linecap="round" stroke-linejoin="round" stroke-miterlimit="10" x1="50.1" y1="62.1" x2="43.4" y2="71.7"/>
<line fill="none" stroke="#000000" stroke-width="3" stroke-linecap="round" stroke-linejoin="round" stroke-miterlimit="10" x1="61.1" y1="62.1" x2="57.8" y2="66.9"/>
<line fill="none" stroke="#000000" stroke-width="3" stroke-linecap="round" stroke-linejoin="round" stroke-miterlimit="10" x1="72.1" y1="62.1" x2="65.4" y2="71.7"/>
</svg>