<svg xmlns="http://www.w3.org/2000/svg" xmlns:xlink="http://www.w3.org/1999/xlink" version="1.1" x="0px" y="0px" width="100px" height="100px" viewBox="0 0 100 100" enable-background="new 0 0 100 100" xml:space="preserve">
<g id="Captions">
</g>
<g id="Your_Icon">
	<path d="M51.56,6.952V1.825C51.56,0.817,50.744,0,49.736,0s-1.823,0.817-1.823,1.825v5.127c0.605-0.025,1.214-0.04,1.823-0.04   S50.954,6.927,51.56,6.952z"/>
	<path d="M47.913,92.521v5.128c0,1.007,0.815,1.824,1.823,1.824s1.823-0.817,1.823-1.824v-5.128c-0.605,0.025-1.214,0.04-1.823,0.04   S48.519,92.546,47.913,92.521z"/>
	<path d="M6.912,49.736c0-0.609,0.015-1.218,0.04-1.823H1.824C0.817,47.913,0,48.729,0,49.736c0,1.008,0.817,1.823,1.824,1.823   h5.128C6.927,50.954,6.912,50.346,6.912,49.736z"/>
	<path d="M97.648,47.913h-5.128c0.025,0.605,0.04,1.214,0.04,1.823s-0.015,1.218-0.04,1.823h5.128c1.007,0,1.824-0.815,1.824-1.823   C99.473,48.729,98.655,47.913,97.648,47.913z"/>
	<path d="M81.278,78.7c-0.409,0.446-0.829,0.886-1.26,1.317c-0.433,0.432-0.872,0.85-1.318,1.261l3.626,3.626   c0.355,0.356,0.822,0.534,1.289,0.534s0.934-0.178,1.29-0.534c0.711-0.712,0.711-1.867,0-2.578L81.278,78.7z"/>
	<path d="M18.194,20.772c0.411-0.445,0.829-0.886,1.26-1.317c0.433-0.432,0.872-0.851,1.318-1.261l-3.626-3.626   c-0.712-0.711-1.866-0.711-2.578,0c-0.712,0.712-0.712,1.867,0,2.58L18.194,20.772z"/>
	<path d="M18.194,78.7l-3.626,3.626c-0.712,0.711-0.712,1.866,0,2.578c0.356,0.356,0.822,0.534,1.289,0.534s0.934-0.178,1.289-0.534   l3.626-3.626c-0.446-0.411-0.886-0.829-1.318-1.261C19.023,79.586,18.604,79.146,18.194,78.7z"/>
	<path d="M81.278,20.772l3.627-3.625c0.711-0.713,0.711-1.867,0-2.58c-0.713-0.711-1.867-0.711-2.579,0L78.7,18.194   c0.446,0.41,0.886,0.829,1.318,1.261C80.449,19.886,80.867,20.327,81.278,20.772z"/>
	<path d="M4.765,33.11l4.728,1.954c0.245-0.671,0.509-1.338,0.787-2c0.196-0.46,0.401-0.915,0.611-1.367l-4.732-1.958   c-0.931-0.383-1.996,0.058-2.382,0.989C3.392,31.659,3.834,32.724,4.765,33.11z"/>
	<path d="M94.708,66.362l-4.727-1.954c-0.246,0.672-0.508,1.338-0.788,2c-0.196,0.46-0.401,0.915-0.611,1.367l4.732,1.958   c0.229,0.094,0.464,0.139,0.696,0.139c0.716,0,1.396-0.424,1.686-1.127C96.081,67.814,95.639,66.748,94.708,66.362z"/>
	<path d="M67.775,10.891l1.958-4.732c0.385-0.931-0.058-1.997-0.988-2.383c-0.931-0.385-1.997,0.058-2.382,0.989l-1.955,4.727   c0.672,0.246,1.338,0.508,2,0.788C66.869,10.475,67.323,10.68,67.775,10.891z"/>
	<path d="M31.697,88.582l-1.957,4.732c-0.386,0.931,0.057,1.996,0.987,2.382c0.228,0.094,0.465,0.139,0.696,0.139   c0.716,0,1.396-0.424,1.687-1.127l1.954-4.727c-0.672-0.246-1.338-0.51-2-0.788C32.604,88.997,32.149,88.792,31.697,88.582z"/>
	<path d="M9.508,64.45l-4.726,1.96c-0.93,0.386-1.371,1.453-0.985,2.384c0.291,0.702,0.97,1.125,1.685,1.125   c0.232,0,0.47-0.045,0.698-0.141l4.729-1.962c-0.217-0.465-0.429-0.934-0.63-1.408C10.006,65.76,9.75,65.107,9.508,64.45z"/>
	<path d="M89.965,35.022l4.726-1.96c0.931-0.386,1.371-1.452,0.985-2.382c-0.385-0.931-1.452-1.373-2.383-0.986l-4.729,1.962   c0.217,0.467,0.429,0.935,0.63,1.409C89.467,33.712,89.724,34.365,89.965,35.022z"/>
	<path d="M31.656,10.909c0.465-0.217,0.934-0.429,1.408-0.629c0.648-0.274,1.301-0.53,1.959-0.772l-1.961-4.725   c-0.386-0.931-1.453-1.373-2.384-0.985c-0.929,0.385-1.371,1.452-0.984,2.382L31.656,10.909z"/>
	<path d="M67.818,88.563c-0.467,0.217-0.936,0.429-1.41,0.63c-0.647,0.273-1.301,0.53-1.958,0.771l1.961,4.727   c0.291,0.702,0.969,1.125,1.685,1.125c0.232,0,0.47-0.045,0.698-0.14c0.931-0.387,1.371-1.453,0.986-2.383L67.818,88.563z"/>
	<path d="M88.612,54.635c0.029-0.238,0.055-0.479,0.08-0.718c0.009-0.087,0.021-0.175,0.028-0.263   c0.021-0.194,0.035-0.39,0.052-0.582c0.011-0.133,0.024-0.265,0.033-0.396c0.013-0.17,0.021-0.339,0.032-0.508   c0.009-0.156,0.021-0.312,0.028-0.47c0.002-0.046,0.003-0.093,0.006-0.139c0.005-0.134,0.009-0.267,0.015-0.4   c0.005-0.147,0.012-0.294,0.016-0.438c0.008-0.329,0.012-0.656,0.012-0.984s-0.004-0.656-0.012-0.984   c-0.004-0.145-0.011-0.292-0.016-0.439c-0.006-0.133-0.01-0.267-0.015-0.4c-0.003-0.046-0.004-0.093-0.006-0.139   c-0.008-0.158-0.02-0.313-0.028-0.47c-0.011-0.169-0.02-0.338-0.032-0.507c-0.009-0.132-0.022-0.263-0.033-0.396   c-0.017-0.194-0.031-0.389-0.052-0.583c-0.008-0.087-0.019-0.176-0.027-0.263c-0.026-0.239-0.052-0.479-0.081-0.718   c-0.004-0.033-0.009-0.066-0.013-0.099c-0.361-2.841-1.033-5.622-2.009-8.318c-0.233-0.649-0.486-1.295-0.757-1.936   c-0.204-0.482-0.42-0.958-0.642-1.432c-1.389-2.949-3.124-5.695-5.193-8.204c-0.034-0.041-0.07-0.081-0.104-0.122   c-0.164-0.2-0.331-0.398-0.5-0.594c-0.085-0.096-0.171-0.191-0.255-0.288c-0.124-0.14-0.247-0.28-0.373-0.419   c-0.022-0.025-0.046-0.049-0.067-0.074c-0.122-0.132-0.244-0.263-0.367-0.394c-0.073-0.078-0.144-0.156-0.217-0.233   c-0.223-0.232-0.447-0.464-0.676-0.692c-0.229-0.229-0.46-0.455-0.694-0.677c-0.067-0.064-0.136-0.127-0.204-0.19   c-0.14-0.131-0.28-0.263-0.421-0.393c-0.025-0.022-0.051-0.045-0.076-0.069c-0.129-0.118-0.262-0.232-0.393-0.349   c-0.105-0.092-0.21-0.186-0.315-0.279c-0.188-0.163-0.379-0.323-0.568-0.481c-0.05-0.04-0.099-0.082-0.146-0.123   c-2.521-2.077-5.278-3.818-8.241-5.209c-0.46-0.215-0.924-0.426-1.394-0.624c-0.653-0.276-1.312-0.533-1.976-0.772   c-2.685-0.968-5.453-1.634-8.283-1.994c-0.03-0.004-0.062-0.009-0.094-0.014c-0.24-0.029-0.482-0.055-0.723-0.081   c-0.086-0.009-0.172-0.02-0.258-0.028c-0.197-0.02-0.395-0.036-0.592-0.051c-0.129-0.011-0.258-0.024-0.386-0.033   c-0.172-0.013-0.344-0.021-0.516-0.032c-0.153-0.009-0.308-0.021-0.463-0.028c-0.046-0.002-0.093-0.004-0.139-0.005   c-0.132-0.006-0.266-0.01-0.399-0.016c-0.146-0.004-0.293-0.012-0.44-0.016c-0.327-0.008-0.655-0.012-0.983-0.012   s-0.656,0.004-0.983,0.012c-0.147,0.004-0.294,0.012-0.441,0.016c-0.133,0.005-0.267,0.009-0.398,0.016   c-0.046,0.001-0.093,0.003-0.139,0.005c-0.156,0.007-0.31,0.019-0.466,0.028c-0.17,0.011-0.341,0.019-0.512,0.032   c-0.129,0.009-0.259,0.022-0.389,0.033c-0.196,0.017-0.394,0.032-0.59,0.051c-0.086,0.008-0.172,0.019-0.259,0.028   c-0.24,0.026-0.481,0.052-0.722,0.081c-0.032,0.005-0.064,0.009-0.097,0.014c-2.841,0.361-5.623,1.031-8.319,2.008   c-0.65,0.234-1.297,0.486-1.937,0.757c-0.482,0.204-0.958,0.419-1.431,0.641c-2.948,1.389-5.694,3.125-8.204,5.193   c-0.045,0.037-0.088,0.076-0.133,0.113c-0.194,0.161-0.391,0.325-0.582,0.492c-0.102,0.087-0.201,0.177-0.302,0.266   c-0.136,0.12-0.272,0.239-0.407,0.362c-0.024,0.022-0.049,0.045-0.073,0.067c-0.138,0.125-0.272,0.252-0.409,0.381   c-0.071,0.067-0.146,0.133-0.217,0.202c-0.233,0.224-0.465,0.448-0.694,0.677c-0.229,0.229-0.453,0.46-0.677,0.694   c-0.07,0.074-0.139,0.149-0.209,0.225c-0.125,0.132-0.25,0.266-0.374,0.401c-0.021,0.025-0.045,0.049-0.067,0.074   c-0.124,0.136-0.244,0.275-0.366,0.412c-0.087,0.099-0.176,0.197-0.262,0.296c-0.167,0.193-0.332,0.389-0.494,0.584   c-0.037,0.043-0.074,0.087-0.11,0.131c-2.077,2.52-3.819,5.278-5.21,8.241c-0.216,0.46-0.426,0.924-0.624,1.394   c-0.276,0.653-0.533,1.312-0.772,1.976c-0.968,2.684-1.634,5.451-1.994,8.278c-0.004,0.033-0.009,0.066-0.013,0.099   c-0.029,0.239-0.055,0.479-0.081,0.718c-0.009,0.087-0.02,0.176-0.027,0.263c-0.021,0.194-0.035,0.389-0.052,0.583   c-0.011,0.132-0.023,0.263-0.033,0.396c-0.013,0.169-0.021,0.338-0.031,0.507c-0.01,0.156-0.021,0.312-0.029,0.47   c-0.002,0.046-0.003,0.092-0.006,0.139c-0.005,0.134-0.009,0.267-0.015,0.4c-0.005,0.147-0.012,0.294-0.016,0.439   c-0.008,0.328-0.012,0.656-0.012,0.984s0.004,0.656,0.012,0.984c0.004,0.145,0.011,0.291,0.016,0.438   c0.006,0.134,0.01,0.267,0.015,0.4c0.003,0.046,0.004,0.093,0.006,0.139c0.008,0.157,0.02,0.313,0.029,0.47   c0.01,0.169,0.019,0.338,0.031,0.508c0.01,0.132,0.022,0.264,0.033,0.396c0.017,0.192,0.031,0.388,0.052,0.582   c0.008,0.088,0.02,0.176,0.029,0.263c0.024,0.239,0.05,0.479,0.079,0.718c0.004,0.033,0.009,0.066,0.013,0.1   c0.361,2.841,1.033,5.621,2.009,8.316c0.233,0.65,0.486,1.297,0.758,1.937c0.203,0.482,0.419,0.958,0.641,1.432   c1.389,2.947,3.124,5.693,5.193,8.203c0.037,0.045,0.075,0.088,0.112,0.133c0.163,0.194,0.325,0.391,0.492,0.582   c0.087,0.101,0.176,0.198,0.263,0.299c0.122,0.136,0.242,0.273,0.365,0.41c0.022,0.024,0.045,0.049,0.067,0.074   c0.124,0.135,0.249,0.268,0.374,0.4c0.07,0.075,0.139,0.15,0.209,0.225c0.224,0.234,0.448,0.465,0.677,0.694   c0.229,0.229,0.461,0.453,0.694,0.677c0.071,0.068,0.146,0.135,0.217,0.202c0.137,0.128,0.271,0.255,0.409,0.381   c0.024,0.022,0.049,0.045,0.073,0.067c0.135,0.123,0.271,0.242,0.407,0.362c0.101,0.089,0.2,0.179,0.302,0.266   c0.191,0.167,0.388,0.331,0.582,0.492c0.045,0.037,0.088,0.075,0.133,0.112c2.521,2.077,5.278,3.819,8.241,5.21   c0.46,0.216,0.924,0.426,1.394,0.624c0.653,0.276,1.312,0.533,1.976,0.772c2.686,0.968,5.452,1.634,8.28,1.994   c0.032,0.004,0.064,0.008,0.097,0.013c0.24,0.029,0.481,0.055,0.722,0.081c0.087,0.009,0.173,0.02,0.259,0.027   c0.196,0.021,0.394,0.035,0.59,0.052c0.13,0.011,0.26,0.023,0.389,0.033c0.171,0.013,0.342,0.021,0.512,0.031   c0.156,0.01,0.31,0.021,0.466,0.028c0.046,0.003,0.093,0.004,0.139,0.005c0.132,0.007,0.266,0.011,0.398,0.017   c0.147,0.004,0.294,0.012,0.441,0.016c0.327,0.008,0.655,0.012,0.983,0.012s0.656-0.004,0.983-0.012   c0.147-0.004,0.294-0.012,0.44-0.016c0.134-0.006,0.268-0.01,0.399-0.017c0.046-0.001,0.093-0.002,0.139-0.005   c0.155-0.007,0.31-0.019,0.463-0.028c0.172-0.01,0.344-0.019,0.516-0.031c0.128-0.01,0.257-0.022,0.386-0.033   c0.197-0.016,0.395-0.031,0.592-0.052c0.086-0.008,0.172-0.019,0.258-0.027c0.24-0.025,0.482-0.052,0.723-0.081   c0.032-0.004,0.063-0.009,0.094-0.013c2.843-0.361,5.625-1.031,8.323-2.009c0.649-0.235,1.296-0.486,1.936-0.758   c0.482-0.203,0.958-0.419,1.432-0.643c2.947-1.387,5.693-3.122,8.203-5.19c0.047-0.041,0.096-0.083,0.146-0.123   c0.189-0.158,0.381-0.318,0.568-0.481c0.105-0.092,0.21-0.186,0.315-0.278c0.131-0.116,0.264-0.231,0.393-0.35   c0.025-0.023,0.051-0.046,0.076-0.069c0.141-0.129,0.281-0.261,0.421-0.392c0.068-0.063,0.137-0.126,0.204-0.19   c0.234-0.223,0.466-0.448,0.694-0.677c0.229-0.229,0.453-0.46,0.676-0.693c0.073-0.076,0.144-0.154,0.217-0.232   c0.123-0.131,0.245-0.262,0.367-0.394c0.022-0.025,0.045-0.05,0.067-0.074c0.126-0.138,0.247-0.278,0.37-0.418   c0.086-0.097,0.173-0.193,0.258-0.291c0.168-0.194,0.333-0.392,0.498-0.588c0.035-0.043,0.07-0.084,0.106-0.126   c2.077-2.521,3.819-5.279,5.21-8.242c0.216-0.46,0.426-0.924,0.625-1.394c0.275-0.653,0.532-1.312,0.771-1.976   c0.968-2.684,1.635-5.451,1.994-8.277C88.604,54.701,88.608,54.668,88.612,54.635z M85.267,49.736c0,0.612-0.015,1.219-0.045,1.823   c-0.179,3.512-0.868,6.886-1.991,10.057c-0.409,1.151-0.874,2.276-1.396,3.37c-1.489,3.129-3.423,6.006-5.72,8.55   c-0.814,0.903-1.676,1.764-2.578,2.579c-2.534,2.289-5.4,4.217-8.517,5.704c-1.094,0.521-2.219,0.987-3.369,1.397   c-3.18,1.132-6.567,1.826-10.092,2.005c-0.604,0.03-1.211,0.045-1.823,0.045s-1.219-0.015-1.823-0.045   c-3.512-0.179-6.886-0.868-10.056-1.991c-1.152-0.409-2.277-0.874-3.371-1.396c-3.129-1.489-6.008-3.423-8.551-5.72   c-0.902-0.814-1.764-1.676-2.578-2.578c-2.289-2.535-4.217-5.4-5.704-8.519c-0.522-1.092-0.987-2.217-1.397-3.367   c-1.132-3.18-1.826-6.567-2.005-10.092c-0.03-0.604-0.045-1.211-0.045-1.823s0.015-1.219,0.045-1.823   c0.179-3.512,0.868-6.887,1.991-10.056c0.409-1.152,0.874-2.277,1.396-3.37c1.489-3.129,3.423-6.008,5.72-8.552   c0.815-0.903,1.676-1.764,2.579-2.578c2.534-2.289,5.399-4.216,8.518-5.704c1.092-0.522,2.217-0.988,3.368-1.397   c3.18-1.132,6.567-1.826,10.091-2.004c0.604-0.03,1.211-0.045,1.823-0.045s1.219,0.015,1.823,0.045   c3.512,0.178,6.887,0.867,10.057,1.992c1.151,0.409,2.276,0.873,3.37,1.394c3.129,1.49,6.006,3.423,8.551,5.72   c0.902,0.814,1.764,1.676,2.578,2.578c2.289,2.535,4.217,5.401,5.704,8.517c0.522,1.094,0.987,2.219,1.397,3.369   c1.132,3.18,1.826,6.567,2.005,10.092C85.252,48.517,85.267,49.124,85.267,49.736z"/>
</g>
</svg>